<?xml version="1.0" standalone="no"?><!DOCTYPE svg PUBLIC "-//W3C//DTD SVG 1.1//EN" "http://www.w3.org/Graphics/SVG/1.1/DTD/svg11.dtd"><svg t="1741315122475" class="icon" viewBox="0 0 1024 1024" version="1.1" xmlns="http://www.w3.org/2000/svg" p-id="14585" xmlns:xlink="http://www.w3.org/1999/xlink" width="200" height="200"><path d="M864.019692 64H160.019692a95.980308 95.980308 0 0 0-96.019692 96.019692v704a95.980308 95.980308 0 0 0 96.019692 95.980308h704a96.019692 96.019692 0 0 0 95.980308-96.019692V160.019692a96.019692 96.019692 0 0 0-96.019692-95.980307z m31.980308 96.019692v192h-224.019692V128h192a31.980308 31.980308 0 0 1 32.019692 32.019692z m-115.830154 448a143.990154 143.990154 0 0 0-108.189538-108.189538v-83.849846h224.019692v192.039384h-115.830154zM260.489846 415.940923a128 128 0 0 0 91.529846 91.529846v100.509539H128v-192.039385h132.489846z m247.020308-63.960615a127.960615 127.960615 0 0 0-91.490462-91.529846V128h191.960616v224.019692h-100.43077z m-91.490462 155.490461a127.921231 127.921231 0 0 0 91.490462-91.490461h100.509538v83.810461a144.029538 144.029538 0 0 0-108.189538 108.150154h-83.849846v-100.430769z m83.810462 164.509539a144.029538 144.029538 0 0 0 108.150154 108.150154v115.830153h-191.960616v-224.019692h83.810462z m140.169846 47.970461a79.990154 79.990154 0 1 1 0-159.980307 79.990154 79.990154 0 0 1 0 159.980307zM159.980308 128h192v132.489846a128 128 0 0 0-91.490462 91.529846H128V159.940923a31.980308 31.980308 0 0 1 32.019692-31.980308zM128 864.019692v-192h224.019692v223.980308H159.940923a31.980308 31.980308 0 0 1-31.980308-32.019692z m736.019692 31.980308h-192v-115.830154a143.990154 143.990154 0 0 0 108.150154-108.189538h115.830154v192a31.980308 31.980308 0 0 1-32.019692 32.019692z" fill="#000000" p-id="14586"></path></svg>